<svg width="18" height="18" viewBox="0 0 18 18" fill="none" xmlns="http://www.w3.org/2000/svg">
<g clip-path="url(#clip0_8923_4932)">
<path d="M15.652 7.88282V8.53736C15.6511 10.0716 15.1544 11.5644 14.2357 12.7932C13.3171 14.022 12.0259 14.9209 10.5547 15.3559C9.08343 15.7909 7.51099 15.7387 6.07186 15.207C4.63273 14.6753 3.40402 13.6927 2.56898 12.4056C1.73395 11.1186 1.33733 9.59605 1.43827 8.06517C1.53922 6.53429 2.13232 5.07706 3.12913 3.9108C4.12593 2.74453 5.47303 1.93174 6.96952 1.59363C8.466 1.25552 10.0317 1.41021 11.4331 2.03463" stroke="#2FB536" stroke-width="1.42292" stroke-linecap="round" stroke-linejoin="round"/>
<path d="M15.6513 2.8457L8.53672 9.9674L6.40234 7.83303" stroke="#2FB536" stroke-width="1.42292" stroke-linecap="round" stroke-linejoin="round"/>
</g>
<defs>
<clipPath id="clip0_8923_4932">
<rect width="17.075" height="17.075" fill="white"/>
</clipPath>
</defs>
</svg>
