<svg width="18" height="18" viewBox="0 0 18 18" fill="none" xmlns="http://www.w3.org/2000/svg">
<g clip-path="url(#clip0_8923_5028)">
<path d="M15.652 7.88294V8.53748C15.6511 10.0717 15.1544 11.5645 14.2357 12.7933C13.3171 14.0221 12.0259 14.921 10.5547 15.356C9.08343 15.791 7.51099 15.7388 6.07186 15.2071C4.63273 14.6754 3.40402 13.6928 2.56898 12.4057C1.73395 11.1187 1.33733 9.59617 1.43827 8.06529C1.53922 6.53441 2.13232 5.07718 3.12913 3.91092C4.12593 2.74466 5.47303 1.93186 6.96952 1.59375C8.466 1.25564 10.0317 1.41033 11.4331 2.03475" stroke="white" stroke-width="1.42292" stroke-linecap="round" stroke-linejoin="round"/>
<path d="M15.6523 2.84583L8.5377 9.96752L6.40332 7.83315" stroke="white" stroke-width="1.42292" stroke-linecap="round" stroke-linejoin="round"/>
</g>
<defs>
<clipPath id="clip0_8923_5028">
<rect width="17.075" height="17.075" fill="white"/>
</clipPath>
</defs>
</svg>
