<svg width="85" height="26" viewBox="0 0 85 26" fill="none" xmlns="http://www.w3.org/2000/svg">
<path d="M2.00859 4.01718C3.11791 4.01718 4.01718 3.11791 4.01718 2.00859C4.01718 0.899277 3.11791 0 2.00859 0C0.899277 0 0 0.899277 0 2.00859C0 3.11791 0.899277 4.01718 2.00859 4.01718Z" fill="#E1B449"/>
<path d="M14.0288 4.00728C15.1325 4.00728 16.0273 3.11251 16.0273 2.00877C16.0273 0.905018 15.1325 0.0102539 14.0288 0.0102539C12.925 0.0102539 12.0303 0.905018 12.0303 2.00877C12.0303 3.11251 12.925 4.00728 14.0288 4.00728Z" fill="#E1B449"/>
<path d="M24.7088 4.01718C25.8181 4.01718 26.7174 3.11791 26.7174 2.00859C26.7174 0.899277 25.8181 0 24.7088 0C23.5995 0 22.7002 0.899277 22.7002 2.00859C22.7002 3.11791 23.5995 4.01718 24.7088 4.01718Z" fill="#E1B449"/>
<path d="M36.73 4.00728C37.8337 4.00728 38.7285 3.11251 38.7285 2.00877C38.7285 0.905018 37.8337 0.0102539 36.73 0.0102539C35.6262 0.0102539 34.7314 0.905018 34.7314 2.00877C34.7314 3.11251 35.6262 4.00728 36.73 4.00728Z" fill="#E1B449"/>
<path d="M47.854 4.00728C48.9577 4.00728 49.8525 3.11251 49.8525 2.00877C49.8525 0.905018 48.9577 0.0102539 47.854 0.0102539C46.7502 0.0102539 45.8555 0.905018 45.8555 2.00877C45.8555 3.11251 46.7502 4.00728 47.854 4.00728Z" fill="#E1B449"/>
<path d="M59.4311 4.00728C60.5349 4.00728 61.4296 3.11251 61.4296 2.00877C61.4296 0.905018 60.5349 0.0102539 59.4311 0.0102539C58.3274 0.0102539 57.4326 0.905018 57.4326 2.00877C57.4326 3.11251 58.3274 4.00728 59.4311 4.00728Z" fill="#E1B449"/>
<path fill-rule="evenodd" clip-rule="evenodd" d="M2.01073 11.1373C2.40703 11.1372 2.79445 11.2546 3.12402 11.4747C3.45358 11.6948 3.71048 12.0076 3.86222 12.3737C4.01396 12.7398 4.05373 13.1427 3.97649 13.5314C3.89926 13.9201 3.70849 14.2771 3.42831 14.5574C3.14814 14.8376 2.79114 15.0285 2.40247 15.1059C2.0138 15.1832 1.61092 15.1436 1.24478 14.992C0.878646 14.8404 0.565697 14.5836 0.345516 14.2541C0.125335 13.9246 0.00781252 13.5372 0.0078125 13.1409C0.00781247 12.6096 0.218814 12.1001 0.594416 11.7244C0.970019 11.3487 1.47947 11.1375 2.01073 11.1373Z" fill="#E1B449"/>
<path fill-rule="evenodd" clip-rule="evenodd" d="M14.0293 11.1373C14.4256 11.1372 14.813 11.2546 15.1426 11.4747C15.4721 11.6948 15.729 12.0076 15.8808 12.3737C16.0325 12.7398 16.0723 13.1427 15.995 13.5314C15.9178 13.9201 15.727 14.2771 15.4469 14.5574C15.1667 14.8376 14.8097 15.0285 14.421 15.1059C14.0324 15.1832 13.6295 15.1436 13.2633 14.992C12.8972 14.8404 12.5843 14.5836 12.3641 14.2541C12.1439 13.9246 12.0264 13.5372 12.0264 13.1409C12.0264 12.6096 12.2374 12.1001 12.613 11.7244C12.9886 11.3487 13.498 11.1375 14.0293 11.1373Z" fill="#E1B449"/>
<path fill-rule="evenodd" clip-rule="evenodd" d="M24.7139 11.1373C25.1101 11.1372 25.4976 11.2546 25.8271 11.4747C26.1567 11.6948 26.4136 12.0076 26.5653 12.3737C26.7171 12.7398 26.7569 13.1427 26.6796 13.5314C26.6024 13.9201 26.4116 14.2771 26.1314 14.5574C25.8513 14.8376 25.4943 15.0285 25.1056 15.1059C24.7169 15.1832 24.314 15.1436 23.9479 14.992C23.5818 14.8404 23.2688 14.5836 23.0486 14.2541C22.8285 13.9246 22.7109 13.5372 22.7109 13.1409C22.7109 12.6096 22.9219 12.1001 23.2975 11.7244C23.6731 11.3487 24.1826 11.1375 24.7139 11.1373Z" fill="#E1B449"/>
<path fill-rule="evenodd" clip-rule="evenodd" d="M36.7295 11.1373C37.1258 11.1372 37.5132 11.2546 37.8428 11.4747C38.1723 11.6948 38.4292 12.0076 38.581 12.3737C38.7327 12.7398 38.7725 13.1427 38.6952 13.5314C38.618 13.9201 38.4272 14.2771 38.1471 14.5574C37.8669 14.8376 37.5099 15.0285 37.1212 15.1059C36.7326 15.1832 36.3297 15.1436 35.9635 14.992C35.5974 14.8404 35.2844 14.5836 35.0643 14.2541C34.8441 13.9246 34.7266 13.5372 34.7266 13.1409C34.7266 12.6096 34.9376 12.1001 35.3132 11.7244C35.6888 11.3487 36.1982 11.1375 36.7295 11.1373Z" fill="#E1B449"/>
<path fill-rule="evenodd" clip-rule="evenodd" d="M47.8584 11.1373C48.2547 11.1372 48.6421 11.2546 48.9717 11.4747C49.3012 11.6948 49.5581 12.0076 49.7099 12.3737C49.8616 12.7398 49.9014 13.1427 49.8242 13.5314C49.7469 13.9201 49.5561 14.2771 49.276 14.5574C48.9958 14.8376 48.6388 15.0285 48.2501 15.1059C47.8615 15.1832 47.4586 15.1436 47.0924 14.992C46.7263 14.8404 46.4134 14.5836 46.1932 14.2541C45.973 13.9246 45.8555 13.5372 45.8555 13.1409C45.8555 12.6096 46.0665 12.1001 46.4421 11.7244C46.8177 11.3487 47.3271 11.1375 47.8584 11.1373Z" fill="#E1B449"/>
<path fill-rule="evenodd" clip-rule="evenodd" d="M59.4297 11.1373C59.826 11.1372 60.2134 11.2546 60.543 11.4747C60.8725 11.6948 61.1294 12.0076 61.2812 12.3737C61.4329 12.7398 61.4727 13.1427 61.3954 13.5314C61.3182 13.9201 61.1274 14.2771 60.8473 14.5574C60.5671 14.8376 60.2101 15.0285 59.8214 15.1059C59.4327 15.1832 59.0299 15.1436 58.6637 14.992C58.2976 14.8404 57.9846 14.5836 57.7645 14.2541C57.5443 13.9246 57.4268 13.5372 57.4268 13.1409C57.4268 12.6096 57.6378 12.1001 58.0134 11.7244C58.389 11.3487 58.8984 11.1375 59.4297 11.1373Z" fill="#E1B449"/>
<path fill-rule="evenodd" clip-rule="evenodd" d="M2.01073 21.8245C2.40703 21.8243 2.79445 21.9417 3.12402 22.1618C3.45358 22.3819 3.71048 22.6948 3.86222 23.0609C4.01396 23.4269 4.05373 23.8298 3.97649 24.2185C3.89926 24.6072 3.70849 24.9643 3.42831 25.2445C3.14814 25.5248 2.79114 25.7157 2.40247 25.793C2.0138 25.8704 1.61092 25.8307 1.24478 25.6791C0.878646 25.5275 0.565697 25.2707 0.345516 24.9412C0.125335 24.6117 0.00781252 24.2243 0.0078125 23.828C0.00781247 23.2967 0.218814 22.7872 0.594416 22.4115C0.970019 22.0358 1.47947 21.8246 2.01073 21.8245Z" fill="#E1B449"/>
<path fill-rule="evenodd" clip-rule="evenodd" d="M14.0293 21.8245C14.4256 21.8243 14.813 21.9417 15.1426 22.1618C15.4721 22.3819 15.729 22.6948 15.8808 23.0609C16.0325 23.4269 16.0723 23.8298 15.995 24.2185C15.9178 24.6072 15.727 24.9643 15.4469 25.2445C15.1667 25.5248 14.8097 25.7157 14.421 25.793C14.0324 25.8704 13.6295 25.8307 13.2633 25.6791C12.8972 25.5275 12.5843 25.2707 12.3641 24.9412C12.1439 24.6117 12.0264 24.2243 12.0264 23.828C12.0264 23.2967 12.2374 22.7872 12.613 22.4115C12.9886 22.0358 13.498 21.8246 14.0293 21.8245Z" fill="#E1B449"/>
<path fill-rule="evenodd" clip-rule="evenodd" d="M24.7139 21.8245C25.1101 21.8243 25.4976 21.9417 25.8271 22.1618C26.1567 22.3819 26.4136 22.6948 26.5653 23.0609C26.7171 23.4269 26.7569 23.8298 26.6796 24.2185C26.6024 24.6072 26.4116 24.9643 26.1314 25.2445C25.8513 25.5248 25.4943 25.7157 25.1056 25.793C24.7169 25.8704 24.314 25.8307 23.9479 25.6791C23.5818 25.5275 23.2688 25.2707 23.0486 24.9412C22.8285 24.6117 22.7109 24.2243 22.7109 23.828C22.7109 23.2967 22.9219 22.7872 23.2975 22.4115C23.6731 22.0358 24.1826 21.8246 24.7139 21.8245Z" fill="#E1B449"/>
<path fill-rule="evenodd" clip-rule="evenodd" d="M36.7295 21.8245C37.1258 21.8243 37.5132 21.9417 37.8428 22.1618C38.1723 22.3819 38.4292 22.6948 38.581 23.0609C38.7327 23.4269 38.7725 23.8298 38.6952 24.2185C38.618 24.6072 38.4272 24.9643 38.1471 25.2445C37.8669 25.5248 37.5099 25.7157 37.1212 25.793C36.7326 25.8704 36.3297 25.8307 35.9635 25.6791C35.5974 25.5275 35.2844 25.2707 35.0643 24.9412C34.8441 24.6117 34.7266 24.2243 34.7266 23.828C34.7266 23.2967 34.9376 22.7872 35.3132 22.4115C35.6888 22.0358 36.1982 21.8246 36.7295 21.8245Z" fill="#E1B449"/>
<path fill-rule="evenodd" clip-rule="evenodd" d="M47.8584 21.8245C48.2547 21.8243 48.6421 21.9417 48.9717 22.1618C49.3012 22.3819 49.5581 22.6948 49.7099 23.0609C49.8616 23.4269 49.9014 23.8298 49.8242 24.2185C49.7469 24.6072 49.5561 24.9643 49.276 25.2445C48.9958 25.5248 48.6388 25.7157 48.2501 25.793C47.8615 25.8704 47.4586 25.8307 47.0924 25.6791C46.7263 25.5275 46.4134 25.2707 46.1932 24.9412C45.973 24.6117 45.8555 24.2243 45.8555 23.828C45.8555 23.2967 46.0665 22.7872 46.4421 22.4115C46.8177 22.0358 47.3271 21.8246 47.8584 21.8245Z" fill="#E1B449"/>
<path fill-rule="evenodd" clip-rule="evenodd" d="M59.4297 21.8245C59.826 21.8243 60.2134 21.9417 60.543 22.1618C60.8725 22.3819 61.1294 22.6948 61.2812 23.0609C61.4329 23.4269 61.4727 23.8298 61.3954 24.2185C61.3182 24.6072 61.1274 24.9643 60.8473 25.2445C60.5671 25.5248 60.2101 25.7157 59.8214 25.793C59.4327 25.8704 59.0299 25.8307 58.6637 25.6791C58.2976 25.5275 57.9846 25.2707 57.7645 24.9412C57.5443 24.6117 57.4268 24.2243 57.4268 23.828C57.4268 23.2967 57.6378 22.7872 58.0134 22.4115C58.389 22.0358 58.8984 21.8246 59.4297 21.8245Z" fill="#E1B449"/>
<path fill-rule="evenodd" clip-rule="evenodd" d="M71.0049 0.00512705C71.4012 0.00500243 71.7886 0.122403 72.1182 0.34248C72.4477 0.562557 72.7046 0.875426 72.8564 1.24152C73.0081 1.60761 73.0479 2.01047 72.9706 2.39917C72.8934 2.78786 72.7026 3.14492 72.4225 3.42518C72.1423 3.70545 71.7853 3.89633 71.3966 3.97369C71.0079 4.05104 70.6051 4.0114 70.2389 3.85978C69.8728 3.70815 69.5598 3.45135 69.3397 3.12186C69.1195 2.79236 69.002 2.40497 69.002 2.00868C69.002 1.47741 69.213 0.967897 69.5886 0.592176C69.9642 0.216456 70.4736 0.00529412 71.0049 0.00512705Z" fill="#E1B449"/>
<path d="M71.0093 15.1413C72.113 15.1413 73.0078 14.2465 73.0078 13.1428C73.0078 12.0391 72.113 11.1443 71.0093 11.1443C69.9055 11.1443 69.0107 12.0391 69.0107 13.1428C69.0107 14.2465 69.9055 15.1413 71.0093 15.1413Z" fill="#E1B449"/>
<path d="M71.0093 25.8227C72.113 25.8227 73.0078 24.9279 73.0078 23.8242C73.0078 22.7204 72.113 21.8257 71.0093 21.8257C69.9055 21.8257 69.0107 22.7204 69.0107 23.8242C69.0107 24.9279 69.9055 25.8227 71.0093 25.8227Z" fill="#E1B449"/>
<path d="M82.1323 4.0074C83.236 4.0074 84.1308 3.11263 84.1308 2.00889C84.1308 0.90514 83.236 0.010376 82.1323 0.010376C81.0286 0.010376 80.1338 0.90514 80.1338 2.00889C80.1338 3.11263 81.0286 4.0074 82.1323 4.0074Z" fill="#E1B449"/>
<path fill-rule="evenodd" clip-rule="evenodd" d="M82.1328 11.1375C82.5291 11.1373 82.9165 11.2547 83.2461 11.4748C83.5757 11.6949 83.8326 12.0078 83.9843 12.3738C84.136 12.7399 84.1758 13.1428 84.0986 13.5315C84.0213 13.9202 83.8306 14.2772 83.5504 14.5575C83.2702 14.8378 82.9132 15.0287 82.5245 15.106C82.1359 15.1834 81.733 15.1437 81.3669 14.9921C81.0007 14.8405 80.6878 14.5837 80.4676 14.2542C80.2474 13.9247 80.1299 13.5373 80.1299 13.141C80.1299 12.6097 80.3409 12.1002 80.7165 11.7245C81.0921 11.3488 81.6015 11.1376 82.1328 11.1375Z" fill="#E1B449"/>
<path fill-rule="evenodd" clip-rule="evenodd" d="M82.1328 21.8245C82.5291 21.8243 82.9165 21.9417 83.2461 22.1618C83.5757 22.3819 83.8326 22.6948 83.9843 23.0609C84.136 23.4269 84.1758 23.8298 84.0986 24.2185C84.0213 24.6072 83.8306 24.9643 83.5504 25.2445C83.2702 25.5248 82.9132 25.7157 82.5245 25.793C82.1359 25.8704 81.733 25.8307 81.3669 25.6791C81.0007 25.5275 80.6878 25.2707 80.4676 24.9412C80.2474 24.6117 80.1299 24.2243 80.1299 23.828C80.1299 23.2967 80.3409 22.7872 80.7165 22.4115C81.0921 22.0358 81.6015 21.8246 82.1328 21.8245Z" fill="#E1B449"/>
</svg>
