<svg width="100" height="101" viewBox="0 0 100 101" fill="none" xmlns="http://www.w3.org/2000/svg">
<path d="M62.8335 87.1036C47.3796 83.9554 16.734 70.3515 17.7824 41.1215C18.8309 11.8914 41.6911 27.4455 52.9902 38.8763C59.5285 47.3923 73.0669 60.7074 74.9134 45.8402C75.8751 38.0969 70.9513 22.9102 77.3047 23.1615C78.2888 23.1614 81.4336 24.484 86.1404 29.7752C90.8471 35.0663 93.4236 38.2788 94.1236 39.2237" stroke="#B5B5B5" stroke-width="1.93914" stroke-linecap="round"/>
<path d="M60.8364 95.9227C45.3825 92.7745 14.7369 79.1706 15.7853 49.9406C16.8338 20.7105 39.694 36.2646 50.9931 47.6954C57.5315 56.2114 71.0698 69.5265 72.9163 54.6593C73.878 46.916 68.9542 31.7293 75.3077 31.9806C76.2917 31.9805 79.4365 33.3031 84.1433 38.5942C88.8501 43.8854 91.4266 47.0979 92.1265 48.0428" stroke="#DFB161" stroke-width="1.93914" stroke-linecap="round"/>
</svg>
