<svg width="16" height="16" viewBox="0 0 16 16" fill="none" xmlns="http://www.w3.org/2000/svg">
<path fill-rule="evenodd" clip-rule="evenodd" d="M9.55677 1.94178C9.6446 1.97367 9.72528 2.02255 9.79422 2.08562C9.86316 2.14869 9.919 2.22472 9.95855 2.30937C9.9981 2.39403 10.0206 2.48564 10.0247 2.57898C10.0289 2.67233 10.0146 2.76558 9.9827 2.8534L6.3609 12.8129C6.32895 12.9007 6.28001 12.9814 6.21688 13.0503C6.15375 13.1192 6.07766 13.175 5.99297 13.2145C5.90827 13.254 5.81663 13.2764 5.72326 13.2805C5.62989 13.2846 5.53663 13.2703 5.44881 13.2383C5.36099 13.2064 5.28031 13.1574 5.2114 13.0943C5.14249 13.0312 5.08669 12.9551 5.04718 12.8704C5.00768 12.7857 4.98524 12.694 4.98115 12.6007C4.97706 12.5073 4.9914 12.4141 5.02336 12.3262L8.64515 2.36771C8.67704 2.27988 8.72591 2.1992 8.78899 2.13026C8.85206 2.06132 8.92809 2.00548 9.01274 1.96593C9.0974 1.92638 9.18901 1.90389 9.28235 1.89975C9.3757 1.8956 9.46895 1.90989 9.55677 1.94178Z" fill="white"/>
</svg>
