<svg width="16" height="16" viewBox="0 0 16 16" fill="none" xmlns="http://www.w3.org/2000/svg">
<g clip-path="url(#clip0_8923_1528)">
<path d="M14.2971 1.76001L12.9725 3.0552M12.9725 3.0552L14.9593 4.99798L12.6414 7.26456L10.6545 5.32178M12.9725 3.0552L10.6545 5.32178M7.93253 7.98339C8.27449 8.31332 8.54633 8.70613 8.7324 9.13921C8.91847 9.57229 9.01509 10.0371 9.0167 10.5068C9.01831 10.9766 8.92488 11.442 8.74178 11.8763C8.55868 12.3106 8.28954 12.7051 7.94984 13.0373C7.61015 13.3695 7.20661 13.6326 6.76248 13.8117C6.31834 13.9907 5.84236 14.0821 5.36197 14.0805C4.88157 14.0789 4.40623 13.9845 3.96333 13.8025C3.52043 13.6206 3.11871 13.3548 2.7813 13.0204C2.11778 12.3486 1.75063 11.4489 1.75893 10.515C1.76723 9.58114 2.15031 8.68781 2.82567 8.02742C3.50103 7.36704 4.41462 6.99246 5.36969 6.98434C6.32476 6.97623 7.24487 7.33523 7.93187 7.98404L7.93253 7.98339ZM7.93253 7.98339L10.6545 5.32178" stroke="white" stroke-width="1.05605" stroke-linecap="round" stroke-linejoin="round"/>
</g>
<defs>
<clipPath id="clip0_8923_1528">
<rect width="15.8407" height="15.8407" fill="white"/>
</clipPath>
</defs>
</svg>
