<svg width="23" height="23" viewBox="0 0 23 23" fill="none" xmlns="http://www.w3.org/2000/svg">
<path d="M11.3826 20.8694C16.6216 20.8694 20.8687 16.6224 20.8687 11.3833C20.8687 6.14429 16.6216 1.89722 11.3826 1.89722C6.14356 1.89722 1.89648 6.14429 1.89648 11.3833C1.89648 16.6224 6.14356 20.8694 11.3826 20.8694Z" stroke="#2FB536" stroke-width="1.89722" stroke-linecap="round" stroke-linejoin="round"/>
<path d="M11.3823 15.1778C13.4779 15.1778 15.1768 13.4789 15.1768 11.3833C15.1768 9.2877 13.4779 7.58887 11.3823 7.58887C9.28672 7.58887 7.58789 9.2877 7.58789 11.3833C7.58789 13.4789 9.28672 15.1778 11.3823 15.1778Z" stroke="#2FB536" stroke-width="1.89722" stroke-linecap="round" stroke-linejoin="round"/>
<path d="M4.67578 4.6767L8.69789 8.69881" stroke="#2FB536" stroke-width="1.89722" stroke-linecap="round" stroke-linejoin="round"/>
<path d="M14.0674 14.0679L18.0895 18.09" stroke="#2FB536" stroke-width="1.89722" stroke-linecap="round" stroke-linejoin="round"/>
<path d="M14.0674 8.69881L18.0895 4.6767" stroke="#2FB536" stroke-width="1.89722" stroke-linecap="round" stroke-linejoin="round"/>
<path d="M14.0674 8.69876L17.416 5.35016" stroke="#2FB536" stroke-width="1.89722" stroke-linecap="round" stroke-linejoin="round"/>
<path d="M4.67578 18.09L8.69789 14.0679" stroke="#2FB536" stroke-width="1.89722" stroke-linecap="round" stroke-linejoin="round"/>
</svg>
