<svg width="18" height="18" viewBox="0 0 18 18" fill="none" xmlns="http://www.w3.org/2000/svg">
<path fill-rule="evenodd" clip-rule="evenodd" d="M7.42646 1.95654C6.55958 1.95666 5.70514 2.16276 4.93354 2.55787C4.16193 2.95297 3.49526 3.52578 2.98846 4.22907C2.48166 4.93237 2.14922 5.74603 2.01856 6.60301C1.8879 7.45998 1.96274 8.33574 2.23693 9.15811C2.51111 9.98049 2.97679 10.7259 3.59558 11.333C4.21438 11.9401 4.96858 12.3915 5.79603 12.65C6.62349 12.9084 7.50051 12.9665 8.35484 12.8196C9.20916 12.6726 10.0163 12.3247 10.7098 11.8046C10.7511 11.9255 10.8194 12.0386 10.9162 12.1347L13.6482 14.8667C13.8105 15.024 14.0282 15.1111 14.2542 15.1092C14.4803 15.1074 14.6965 15.0167 14.8563 14.8568C15.016 14.6968 15.1064 14.4805 15.108 14.2544C15.1096 14.0284 15.0222 13.8108 14.8648 13.6487L12.1328 10.9167C12.0402 10.8237 11.9275 10.7534 11.8033 10.711C12.4132 9.8982 12.7846 8.93158 12.876 7.91953C12.9673 6.90747 12.775 5.88997 12.3206 4.98106C11.8662 4.07215 11.1676 3.30776 10.3032 2.77356C9.43875 2.23935 8.44263 1.95644 7.42646 1.95654ZM3.33557 7.42766C3.33557 6.89044 3.44139 6.35847 3.64697 5.86214C3.85256 5.36582 4.15389 4.91484 4.53377 4.53497C4.91364 4.15509 5.36462 3.85376 5.86095 3.64817C6.35727 3.44259 6.88924 3.33677 7.42646 3.33677C7.96368 3.33677 8.49564 3.44259 8.99197 3.64817C9.4883 3.85376 9.93928 4.15509 10.3192 4.53497C10.699 4.91484 11.0004 5.36582 11.2059 5.86214C11.4115 6.35847 11.5173 6.89044 11.5173 7.42766C11.5173 8.51263 11.0863 9.55316 10.3192 10.3204C9.55196 11.0875 8.51143 11.5185 7.42646 11.5185C6.34149 11.5185 5.30096 11.0875 4.53377 10.3204C3.76658 9.55316 3.33557 8.51263 3.33557 7.42766Z" fill="white"/>
</svg>
