<svg width="38" height="38" viewBox="0 0 38 38" fill="none" xmlns="http://www.w3.org/2000/svg">
<path d="M16.2691 6.10268L2.87784 28.4583C2.60175 28.9364 2.45566 29.4785 2.45411 30.0306C2.45257 30.5828 2.59562 31.1257 2.86903 31.6053C3.14245 32.085 3.5367 32.4847 4.01255 32.7647C4.48841 33.0447 5.02929 33.1953 5.58139 33.2013H32.3638C32.9159 33.1953 33.4568 33.0447 33.9327 32.7647C34.4085 32.4847 34.8028 32.085 35.0762 31.6053C35.3496 31.1257 35.4927 30.5828 35.4911 30.0306C35.4896 29.4785 35.3435 28.9364 35.0674 28.4583L21.6762 6.10268C21.3943 5.63803 20.9975 5.25386 20.5239 4.98725C20.0503 4.72063 19.5161 4.58057 18.9726 4.58057C18.4292 4.58057 17.8949 4.72063 17.4213 4.98725C16.9478 5.25386 16.5509 5.63803 16.2691 6.10268Z" stroke="white" stroke-width="1.89722" stroke-linecap="round" stroke-linejoin="round"/>
<path d="M18.9717 14.2292V20.5533" stroke="white" stroke-width="1.89722" stroke-linecap="round" stroke-linejoin="round"/>
<path d="M18.9717 26.8774H18.9883" stroke="white" stroke-width="1.89722" stroke-linecap="round" stroke-linejoin="round"/>
</svg>
