<svg width="18" height="18" viewBox="0 0 18 18" fill="none" xmlns="http://www.w3.org/2000/svg">
<g clip-path="url(#clip0_8923_5038)">
<path d="M15.652 7.88306V8.5376C15.6511 10.0718 15.1544 11.5646 14.2357 12.7934C13.3171 14.0222 12.0259 14.9211 10.5547 15.3561C9.08343 15.7911 7.51099 15.7389 6.07186 15.2072C4.63273 14.6755 3.40402 13.6929 2.56898 12.4058C1.73395 11.1188 1.33733 9.5963 1.43827 8.06542C1.53922 6.53454 2.13232 5.0773 3.12913 3.91104C4.12593 2.74478 5.47303 1.93198 6.96952 1.59387C8.466 1.25576 10.0317 1.41045 11.4331 2.03487" stroke="white" stroke-width="1.42292" stroke-linecap="round" stroke-linejoin="round"/>
<path d="M15.6523 2.84583L8.5377 9.96752L6.40332 7.83315" stroke="white" stroke-width="1.42292" stroke-linecap="round" stroke-linejoin="round"/>
</g>
<defs>
<clipPath id="clip0_8923_5038">
<rect width="17.075" height="17.075" fill="white"/>
</clipPath>
</defs>
</svg>
