<svg width="23" height="23" viewBox="0 0 23 23" fill="none" xmlns="http://www.w3.org/2000/svg">
<g clip-path="url(#clip0_8923_4774)">
<path d="M20.8687 10.5106V11.3833C20.8675 13.4289 20.2052 15.4194 18.9803 17.0578C17.7555 18.6961 16.0339 19.8947 14.0722 20.4747C12.1106 21.0547 10.014 20.9851 8.09516 20.2762C6.17632 19.5672 4.53804 18.2571 3.42466 16.541C2.31128 14.8249 1.78245 12.7949 1.91705 10.7537C2.05164 8.71257 2.84245 6.76959 4.17152 5.21458C5.50059 3.65956 7.29672 2.57583 9.29204 2.12502C11.2873 1.67421 13.3749 1.88046 15.2434 2.71302" stroke="#2FB536" stroke-width="1.89722" stroke-linecap="round" stroke-linejoin="round"/>
<path d="M20.8691 3.79443L11.3829 13.29L8.53711 10.4442" stroke="#2FB536" stroke-width="1.89722" stroke-linecap="round" stroke-linejoin="round"/>
</g>
<defs>
<clipPath id="clip0_8923_4774">
<rect width="22.7667" height="22.7667" fill="white"/>
</clipPath>
</defs>
</svg>
