<svg width="19" height="19" viewBox="0 0 19 19" fill="none" xmlns="http://www.w3.org/2000/svg">
<path d="M11.0652 1.5813H4.74117C4.32186 1.5813 3.91972 1.74787 3.62323 2.04437C3.32673 2.34087 3.16016 2.74301 3.16016 3.16232V15.8105C3.16016 16.2298 3.32673 16.6319 3.62323 16.9284C3.91972 17.2249 4.32186 17.3915 4.74117 17.3915H14.2273C14.6466 17.3915 15.0487 17.2249 15.3452 16.9284C15.6417 16.6319 15.8083 16.2298 15.8083 15.8105V6.32435L11.0652 1.5813Z" stroke="white" stroke-width="1.42292" stroke-linecap="round" stroke-linejoin="round"/>
<path d="M11.0674 1.5813V6.32435H15.8104" stroke="white" stroke-width="1.42292" stroke-linecap="round" stroke-linejoin="round"/>
<path d="M12.6483 10.2764H6.32422" stroke="white" stroke-width="1.42292" stroke-linecap="round" stroke-linejoin="round"/>
<path d="M12.6483 13.439H6.32422" stroke="white" stroke-width="1.42292" stroke-linecap="round" stroke-linejoin="round"/>
<path d="M7.90607 7.11462H7.11514H6.32422" stroke="white" stroke-width="1.42292" stroke-linecap="round" stroke-linejoin="round"/>
</svg>
