<svg width="16" height="16" viewBox="0 0 16 16" fill="none" xmlns="http://www.w3.org/2000/svg">
<path fill-rule="evenodd" clip-rule="evenodd" d="M9.55775 1.94191C9.64557 1.97379 9.72626 2.02267 9.7952 2.08574C9.86414 2.14881 9.91997 2.22484 9.95953 2.3095C9.99908 2.39415 10.0216 2.48576 10.0257 2.57911C10.0299 2.67245 10.0156 2.7657 9.98367 2.85352L6.36188 12.813C6.32992 12.9008 6.28098 12.9815 6.21785 13.0504C6.15472 13.1193 6.07864 13.1751 5.99394 13.2146C5.90925 13.2541 5.8176 13.2766 5.72423 13.2806C5.63087 13.2847 5.53761 13.2704 5.44979 13.2384C5.36196 13.2065 5.28129 13.1576 5.21238 13.0944C5.14347 13.0313 5.08767 12.9552 5.04816 12.8705C5.00865 12.7858 4.98621 12.6942 4.98213 12.6008C4.97804 12.5074 4.99238 12.4142 5.02433 12.3264L8.64613 2.36783C8.67802 2.28001 8.72689 2.19932 8.78996 2.13038C8.85303 2.06144 8.92907 2.00561 9.01372 1.96605C9.09837 1.9265 9.18999 1.90401 9.28333 1.89987C9.37668 1.89573 9.46992 1.91001 9.55775 1.94191Z" fill="white"/>
</svg>
