<svg width="16" height="16" viewBox="0 0 16 16" fill="none" xmlns="http://www.w3.org/2000/svg">
<path d="M14.298 1.76001L12.9735 3.0552M12.9735 3.0552L14.9603 4.99798L12.6423 7.26456L10.6555 5.32178M12.9735 3.0552L10.6555 5.32178M7.9335 7.98339C8.27547 8.31332 8.54731 8.70613 8.73338 9.13921C8.91945 9.57229 9.01607 10.0371 9.01768 10.5068C9.01929 10.9766 8.92585 11.442 8.74276 11.8763C8.55966 12.3106 8.29051 12.7051 7.95082 13.0373C7.61113 13.3695 7.20759 13.6326 6.76345 13.8117C6.31931 13.9907 5.84334 14.0821 5.36294 14.0805C4.88255 14.0789 4.40721 13.9845 3.96431 13.8025C3.52141 13.6206 3.11968 13.3548 2.78227 13.0204C2.11875 12.3486 1.7516 11.4489 1.7599 10.515C1.7682 9.58114 2.15129 8.68781 2.82664 8.02742C3.502 7.36704 4.4156 6.99246 5.37067 6.98434C6.32573 6.97623 7.24585 7.33523 7.93284 7.98404L7.9335 7.98339ZM7.9335 7.98339L10.6555 5.32178" stroke="white" stroke-width="1.05605" stroke-linecap="round" stroke-linejoin="round"/>
</svg>
