<svg width="23" height="23" viewBox="0 0 23 23" fill="none" xmlns="http://www.w3.org/2000/svg">
<g clip-path="url(#clip0_8923_1642)">
<path d="M16.127 19.9208V18.0236C16.127 17.0172 15.7272 16.0521 15.0156 15.3405C14.304 14.6289 13.3389 14.2291 12.3326 14.2291H4.74366C3.73731 14.2291 2.77218 14.6289 2.06059 15.3405C1.34899 16.0521 0.949219 17.0172 0.949219 18.0236V19.9208" stroke="#B16363" stroke-width="1.89722" stroke-linecap="round" stroke-linejoin="round"/>
<path d="M8.53761 10.4347C10.6332 10.4347 12.3321 8.73582 12.3321 6.64021C12.3321 4.54459 10.6332 2.84576 8.53761 2.84576C6.44199 2.84576 4.74316 4.54459 4.74316 6.64021C4.74316 8.73582 6.44199 10.4347 8.53761 10.4347Z" stroke="#B16363" stroke-width="1.89722" stroke-linecap="round" stroke-linejoin="round"/>
<path d="M21.8185 19.9208V18.0236C21.8179 17.1829 21.538 16.3662 21.023 15.7017C20.5079 15.0372 19.7867 14.5627 18.9727 14.3525" stroke="#B16363" stroke-width="1.89722" stroke-linecap="round" stroke-linejoin="round"/>
<path d="M15.1777 2.96912C15.9939 3.1781 16.7174 3.65278 17.234 4.31834C17.7506 4.98389 18.031 5.80246 18.031 6.64498C18.031 7.48751 17.7506 8.30608 17.234 8.97163C16.7174 9.63719 15.9939 10.1119 15.1777 10.3209" stroke="#B16363" stroke-width="1.89722" stroke-linecap="round" stroke-linejoin="round"/>
</g>
<defs>
<clipPath id="clip0_8923_1642">
<rect width="22.7667" height="22.7667" fill="white"/>
</clipPath>
</defs>
</svg>
