<svg width="37" height="23" viewBox="0 0 37 23" fill="none" xmlns="http://www.w3.org/2000/svg">
<path d="M35.5626 15.9596V8.92253L35.8092 8.83185C36.39 8.61897 36.7679 8.08675 36.7679 7.47174C36.7679 6.85673 36.39 6.32452 35.8092 6.11163L19.4799 0.198103C18.7519 -0.0660344 18.016 -0.0660344 17.288 0.198103L0.958678 6.11557C0.377902 6.32846 0 6.86068 0 7.47568C0 8.09069 0.377902 8.62291 0.958678 8.83579L5.87936 10.6177V16.3815C5.87936 17.367 6.30898 18.2462 7.08865 18.8612C10.5733 21.5932 14.4796 22.9573 18.382 22.9573C22.2843 22.9573 26.1946 21.5932 29.6753 18.8612C30.4549 18.2501 30.8846 17.367 30.8846 16.3815V10.6177L34.3652 9.35618V15.9596C33.5378 16.2159 32.9332 16.9689 32.9332 17.8717V20.1346C32.9332 20.9309 33.5895 21.5814 34.3931 21.5814H35.5268C36.3303 21.5814 36.9867 20.9309 36.9867 20.1346V17.8717C36.9946 16.9689 36.39 16.2119 35.5626 15.9596ZM1.19338 7.47568C1.19338 7.35741 1.25702 7.26674 1.3684 7.22732L17.6978 1.3059C18.1632 1.13638 18.6007 1.13638 19.0662 1.3059L35.3955 7.22337C35.5069 7.2628 35.5705 7.35347 35.5705 7.47174C35.5705 7.59001 35.5069 7.68069 35.3955 7.72011L34.8744 7.90934L18.4178 6.88039C18.0876 6.86068 17.8052 7.10905 17.7853 7.43232C17.7654 7.75953 18.016 8.03944 18.3422 8.05915L32.0859 8.91858L19.0701 13.6415C18.6047 13.811 18.1671 13.811 17.7017 13.6415L1.3684 7.72405C1.25702 7.68069 1.19338 7.59001 1.19338 7.47568ZM29.6952 16.3815C29.6952 17.0162 29.4406 17.5405 28.9393 17.9308C22.4315 23.0361 14.3404 23.0361 7.83252 17.9308C7.3313 17.5366 7.07672 17.0162 7.07672 16.3815V11.0475L17.292 14.7493C17.654 14.8794 18.02 14.9464 18.3859 14.9464C18.7519 14.9464 19.1179 14.8794 19.4799 14.7493L29.6952 11.0475V16.3815ZM35.8013 20.1306C35.8013 20.2765 35.6819 20.3948 35.5347 20.3948H34.401C34.2538 20.3948 34.1345 20.2765 34.1345 20.1306V17.8677C34.1345 17.4104 34.5084 17.0398 34.9699 17.0398C35.4313 17.0398 35.8052 17.4104 35.8052 17.8677V20.1306H35.8013Z" fill="#AD781F"/>
</svg>
