<svg width="28" height="18" viewBox="0 0 28 18" fill="none" xmlns="http://www.w3.org/2000/svg">
<path d="M26.4505 11.8703V6.63633L26.6339 6.56889C27.0659 6.41055 27.3469 6.0147 27.3469 5.55727C27.3469 5.09985 27.0659 4.704 26.6339 4.54566L14.4886 0.147344C13.9471 -0.0491145 13.3998 -0.0491145 12.8584 0.147344L0.713038 4.54859C0.281073 4.70693 0 5.10278 0 5.56021C0 6.01763 0.281073 6.41348 0.713038 6.57182L4.37291 7.89718V12.1841C4.37291 12.9171 4.69244 13.571 5.27234 14.0284C7.86413 16.0605 10.7695 17.075 13.672 17.075C16.5744 17.075 19.4828 16.0605 22.0716 14.0284C22.6515 13.5739 22.9711 12.9171 22.9711 12.1841V7.89718L25.5599 6.95887V11.8703C24.9445 12.0609 24.4948 12.621 24.4948 13.2924V14.9755C24.4948 15.5678 24.983 16.0517 25.5806 16.0517H26.4238C27.0215 16.0517 27.5097 15.5678 27.5097 14.9755V13.2924C27.5156 12.621 27.0659 12.058 26.4505 11.8703ZM0.887599 5.56021C0.887599 5.47224 0.934938 5.4048 1.01778 5.37548L13.1631 0.971295C13.5093 0.84521 13.8347 0.84521 14.1809 0.971295L26.3262 5.37254C26.409 5.40187 26.4564 5.46931 26.4564 5.55727C26.4564 5.64524 26.409 5.71268 26.3262 5.742L25.9386 5.88275L13.6986 5.11744C13.453 5.10278 13.243 5.28751 13.2282 5.52795C13.2134 5.77133 13.3998 5.97951 13.6424 5.99417L23.8646 6.63339L14.1838 10.1462C13.8377 10.2723 13.5122 10.2723 13.1661 10.1462L1.01778 5.74493C0.934938 5.71268 0.887599 5.64524 0.887599 5.56021ZM22.0864 12.1841C22.0864 12.6562 21.8971 13.0461 21.5243 13.3364C16.6839 17.1336 10.666 17.1336 5.82561 13.3364C5.45282 13.0432 5.26346 12.6562 5.26346 12.1841V8.21679L12.8613 10.9701C13.1306 11.0669 13.4028 11.1167 13.6749 11.1167C13.9471 11.1167 14.2193 11.0669 14.4886 10.9701L22.0864 8.21679V12.1841ZM26.628 14.9726C26.628 15.0811 26.5392 15.1691 26.4298 15.1691H25.5865C25.4771 15.1691 25.3883 15.0811 25.3883 14.9726V13.2895C25.3883 12.9494 25.6664 12.6737 26.0096 12.6737C26.3528 12.6737 26.6309 12.9494 26.6309 13.2895V14.9726H26.628Z" fill="#AD781F"/>
</svg>
