<svg width="85" height="26" viewBox="0 0 85 26" fill="none" xmlns="http://www.w3.org/2000/svg">
<g clip-path="url(#clip0_8923_1587)">
<path d="M2.2459 4.02658C3.35521 4.02658 4.25449 3.12731 4.25449 2.01799C4.25449 0.908677 3.35521 0.00939941 2.2459 0.00939941C1.13658 0.00939941 0.237305 0.908677 0.237305 2.01799C0.237305 3.12731 1.13658 4.02658 2.2459 4.02658Z" fill="#E1B449"/>
<path d="M14.2661 4.01668C15.3698 4.01668 16.2646 3.12191 16.2646 2.01816C16.2646 0.914417 15.3698 0.0196533 14.2661 0.0196533C13.1623 0.0196533 12.2676 0.914417 12.2676 2.01816C12.2676 3.12191 13.1623 4.01668 14.2661 4.01668Z" fill="#E1B449"/>
<path d="M24.9461 4.02658C26.0554 4.02658 26.9547 3.12731 26.9547 2.01799C26.9547 0.908677 26.0554 0.00939941 24.9461 0.00939941C23.8368 0.00939941 22.9375 0.908677 22.9375 2.01799C22.9375 3.12731 23.8368 4.02658 24.9461 4.02658Z" fill="#E1B449"/>
<path d="M36.9673 4.01668C38.071 4.01668 38.9658 3.12191 38.9658 2.01816C38.9658 0.914417 38.071 0.0196533 36.9673 0.0196533C35.8635 0.0196533 34.9688 0.914417 34.9688 2.01816C34.9688 3.12191 35.8635 4.01668 36.9673 4.01668Z" fill="#E1B449"/>
<path d="M48.0913 4.01668C49.195 4.01668 50.0898 3.12191 50.0898 2.01816C50.0898 0.914417 49.195 0.0196533 48.0913 0.0196533C46.9875 0.0196533 46.0928 0.914417 46.0928 2.01816C46.0928 3.12191 46.9875 4.01668 48.0913 4.01668Z" fill="#E1B449"/>
<path d="M59.6684 4.01668C60.7722 4.01668 61.6669 3.12191 61.6669 2.01816C61.6669 0.914417 60.7722 0.0196533 59.6684 0.0196533C58.5647 0.0196533 57.6699 0.914417 57.6699 2.01816C57.6699 3.12191 58.5647 4.01668 59.6684 4.01668Z" fill="#E1B449"/>
<path fill-rule="evenodd" clip-rule="evenodd" d="M2.24804 11.1467C2.64433 11.1466 3.03176 11.264 3.36132 11.4841C3.69089 11.7042 3.94779 12.017 4.09953 12.3831C4.25127 12.7492 4.29104 13.1521 4.2138 13.5408C4.13656 13.9295 3.94579 14.2865 3.66562 14.5668C3.38544 14.847 3.02844 15.0379 2.63977 15.1153C2.25111 15.1926 1.84823 15.153 1.48209 15.0014C1.11595 14.8498 0.803001 14.593 0.58282 14.2635C0.362639 13.934 0.245117 13.5466 0.245117 13.1503C0.245117 12.619 0.456119 12.1095 0.831721 11.7338C1.20732 11.3581 1.71677 11.1469 2.24804 11.1467Z" fill="#E1B449"/>
<path fill-rule="evenodd" clip-rule="evenodd" d="M14.2666 11.1467C14.6629 11.1466 15.0503 11.264 15.3799 11.4841C15.7094 11.7042 15.9663 12.017 16.1181 12.3831C16.2698 12.7492 16.3096 13.1521 16.2324 13.5408C16.1551 13.9295 15.9643 14.2865 15.6842 14.5668C15.404 14.847 15.047 15.0379 14.6583 15.1153C14.2697 15.1926 13.8668 15.153 13.5006 15.0014C13.1345 14.8498 12.8216 14.593 12.6014 14.2635C12.3812 13.934 12.2637 13.5466 12.2637 13.1503C12.2637 12.619 12.4747 12.1095 12.8503 11.7338C13.2259 11.3581 13.7353 11.1469 14.2666 11.1467Z" fill="#E1B449"/>
<path fill-rule="evenodd" clip-rule="evenodd" d="M24.9512 11.1467C25.3475 11.1466 25.7349 11.264 26.0644 11.4841C26.394 11.7042 26.6509 12.017 26.8027 12.3831C26.9544 12.7492 26.9942 13.1521 26.9169 13.5408C26.8397 13.9295 26.6489 14.2865 26.3687 14.5668C26.0886 14.847 25.7316 15.0379 25.3429 15.1153C24.9542 15.1926 24.5513 15.153 24.1852 15.0014C23.8191 14.8498 23.5061 14.593 23.2859 14.2635C23.0658 13.934 22.9482 13.5466 22.9482 13.1503C22.9482 12.619 23.1592 12.1095 23.5348 11.7338C23.9104 11.3581 24.4199 11.1469 24.9512 11.1467Z" fill="#E1B449"/>
<path fill-rule="evenodd" clip-rule="evenodd" d="M36.9668 11.1467C37.3631 11.1466 37.7505 11.264 38.0801 11.4841C38.4096 11.7042 38.6665 12.017 38.8183 12.3831C38.97 12.7492 39.0098 13.1521 38.9325 13.5408C38.8553 13.9295 38.6645 14.2865 38.3844 14.5668C38.1042 14.847 37.7472 15.0379 37.3585 15.1153C36.9699 15.1926 36.567 15.153 36.2008 15.0014C35.8347 14.8498 35.5218 14.593 35.3016 14.2635C35.0814 13.934 34.9639 13.5466 34.9639 13.1503C34.9639 12.619 35.1749 12.1095 35.5505 11.7338C35.9261 11.3581 36.4355 11.1469 36.9668 11.1467Z" fill="#E1B449"/>
<path fill-rule="evenodd" clip-rule="evenodd" d="M48.0957 11.1467C48.492 11.1466 48.8794 11.264 49.209 11.4841C49.5385 11.7042 49.7954 12.017 49.9472 12.3831C50.0989 12.7492 50.1387 13.1521 50.0615 13.5408C49.9842 13.9295 49.7935 14.2865 49.5133 14.5668C49.2331 14.847 48.8761 15.0379 48.4874 15.1153C48.0988 15.1926 47.6959 15.153 47.3297 15.0014C46.9636 14.8498 46.6507 14.593 46.4305 14.2635C46.2103 13.934 46.0928 13.5466 46.0928 13.1503C46.0928 12.619 46.3038 12.1095 46.6794 11.7338C47.055 11.3581 47.5644 11.1469 48.0957 11.1467Z" fill="#E1B449"/>
<path fill-rule="evenodd" clip-rule="evenodd" d="M59.667 11.1467C60.0633 11.1466 60.4507 11.264 60.7803 11.4841C61.1098 11.7042 61.3667 12.017 61.5185 12.3831C61.6702 12.7492 61.71 13.1521 61.6327 13.5408C61.5555 13.9295 61.3647 14.2865 61.0846 14.5668C60.8044 14.847 60.4474 15.0379 60.0587 15.1153C59.67 15.1926 59.2672 15.153 58.901 15.0014C58.5349 14.8498 58.2219 14.593 58.0018 14.2635C57.7816 13.934 57.6641 13.5466 57.6641 13.1503C57.6641 12.619 57.8751 12.1095 58.2507 11.7338C58.6263 11.3581 59.1357 11.1469 59.667 11.1467Z" fill="#E1B449"/>
<path fill-rule="evenodd" clip-rule="evenodd" d="M2.24804 21.8339C2.64433 21.8337 3.03176 21.9511 3.36132 22.1712C3.69089 22.3913 3.94779 22.7042 4.09953 23.0703C4.25127 23.4363 4.29104 23.8392 4.2138 24.2279C4.13656 24.6166 3.94579 24.9737 3.66562 25.2539C3.38544 25.5342 3.02844 25.7251 2.63977 25.8024C2.25111 25.8798 1.84823 25.8401 1.48209 25.6885C1.11595 25.5369 0.803001 25.2801 0.58282 24.9506C0.362639 24.6211 0.245117 24.2337 0.245117 23.8374C0.245117 23.3061 0.456119 22.7966 0.831721 22.4209C1.20732 22.0452 1.71677 21.834 2.24804 21.8339Z" fill="#E1B449"/>
<path fill-rule="evenodd" clip-rule="evenodd" d="M14.2666 21.8339C14.6629 21.8337 15.0503 21.9511 15.3799 22.1712C15.7094 22.3913 15.9663 22.7042 16.1181 23.0703C16.2698 23.4363 16.3096 23.8392 16.2324 24.2279C16.1551 24.6166 15.9643 24.9737 15.6842 25.2539C15.404 25.5342 15.047 25.7251 14.6583 25.8024C14.2697 25.8798 13.8668 25.8401 13.5006 25.6885C13.1345 25.5369 12.8216 25.2801 12.6014 24.9506C12.3812 24.6211 12.2637 24.2337 12.2637 23.8374C12.2637 23.3061 12.4747 22.7966 12.8503 22.4209C13.2259 22.0452 13.7353 21.834 14.2666 21.8339Z" fill="#E1B449"/>
<path fill-rule="evenodd" clip-rule="evenodd" d="M24.9512 21.8339C25.3475 21.8337 25.7349 21.9511 26.0644 22.1712C26.394 22.3913 26.6509 22.7042 26.8027 23.0703C26.9544 23.4363 26.9942 23.8392 26.9169 24.2279C26.8397 24.6166 26.6489 24.9737 26.3687 25.2539C26.0886 25.5342 25.7316 25.7251 25.3429 25.8024C24.9542 25.8798 24.5513 25.8401 24.1852 25.6885C23.8191 25.5369 23.5061 25.2801 23.2859 24.9506C23.0658 24.6211 22.9482 24.2337 22.9482 23.8374C22.9482 23.3061 23.1592 22.7966 23.5348 22.4209C23.9104 22.0452 24.4199 21.834 24.9512 21.8339Z" fill="#E1B449"/>
<path fill-rule="evenodd" clip-rule="evenodd" d="M36.9668 21.8339C37.3631 21.8337 37.7505 21.9511 38.0801 22.1712C38.4096 22.3913 38.6665 22.7042 38.8183 23.0703C38.97 23.4363 39.0098 23.8392 38.9325 24.2279C38.8553 24.6166 38.6645 24.9737 38.3844 25.2539C38.1042 25.5342 37.7472 25.7251 37.3585 25.8024C36.9699 25.8798 36.567 25.8401 36.2008 25.6885C35.8347 25.5369 35.5218 25.2801 35.3016 24.9506C35.0814 24.6211 34.9639 24.2337 34.9639 23.8374C34.9639 23.3061 35.1749 22.7966 35.5505 22.4209C35.9261 22.0452 36.4355 21.834 36.9668 21.8339Z" fill="#E1B449"/>
<path fill-rule="evenodd" clip-rule="evenodd" d="M48.0957 21.8339C48.492 21.8337 48.8794 21.9511 49.209 22.1712C49.5385 22.3913 49.7954 22.7042 49.9472 23.0703C50.0989 23.4363 50.1387 23.8392 50.0615 24.2279C49.9842 24.6166 49.7935 24.9737 49.5133 25.2539C49.2331 25.5342 48.8761 25.7251 48.4874 25.8024C48.0988 25.8798 47.6959 25.8401 47.3297 25.6885C46.9636 25.5369 46.6507 25.2801 46.4305 24.9506C46.2103 24.6211 46.0928 24.2337 46.0928 23.8374C46.0928 23.3061 46.3038 22.7966 46.6794 22.4209C47.055 22.0452 47.5644 21.834 48.0957 21.8339Z" fill="#E1B449"/>
<path fill-rule="evenodd" clip-rule="evenodd" d="M59.667 21.8339C60.0633 21.8337 60.4507 21.9511 60.7803 22.1712C61.1098 22.3913 61.3667 22.7042 61.5185 23.0703C61.6702 23.4363 61.71 23.8392 61.6327 24.2279C61.5555 24.6166 61.3647 24.9737 61.0846 25.2539C60.8044 25.5342 60.4474 25.7251 60.0587 25.8024C59.67 25.8798 59.2672 25.8401 58.901 25.6885C58.5349 25.5369 58.2219 25.2801 58.0018 24.9506C57.7816 24.6211 57.6641 24.2337 57.6641 23.8374C57.6641 23.3061 57.8751 22.7966 58.2507 22.4209C58.6263 22.0452 59.1357 21.834 59.667 21.8339Z" fill="#E1B449"/>
<path fill-rule="evenodd" clip-rule="evenodd" d="M71.2422 0.0145265C71.6385 0.0144018 72.0259 0.131802 72.3555 0.351879C72.685 0.571957 72.9419 0.884825 73.0937 1.25092C73.2454 1.61701 73.2852 2.01987 73.2079 2.40857C73.1307 2.79726 72.9399 3.15432 72.6598 3.43458C72.3796 3.71484 72.0226 3.90573 71.6339 3.98309C71.2452 4.06044 70.8424 4.0208 70.4762 3.86918C70.1101 3.71755 69.7971 3.46075 69.577 3.13126C69.3568 2.80176 69.2393 2.41437 69.2393 2.01808C69.2393 1.48681 69.4503 0.977297 69.8259 0.601576C70.2015 0.225855 70.7109 0.0146935 71.2422 0.0145265Z" fill="#E1B449"/>
<path d="M71.2466 15.1507C72.3503 15.1507 73.2451 14.2559 73.2451 13.1522C73.2451 12.0485 72.3503 11.1537 71.2466 11.1537C70.1428 11.1537 69.248 12.0485 69.248 13.1522C69.248 14.2559 70.1428 15.1507 71.2466 15.1507Z" fill="#E1B449"/>
<path d="M71.2466 25.8321C72.3503 25.8321 73.2451 24.9373 73.2451 23.8336C73.2451 22.7298 72.3503 21.8351 71.2466 21.8351C70.1428 21.8351 69.248 22.7298 69.248 23.8336C69.248 24.9373 70.1428 25.8321 71.2466 25.8321Z" fill="#E1B449"/>
<path d="M82.3696 4.0168C83.4734 4.0168 84.3681 3.12203 84.3681 2.01829C84.3681 0.914539 83.4734 0.0197754 82.3696 0.0197754C81.2659 0.0197754 80.3711 0.914539 80.3711 2.01829C80.3711 3.12203 81.2659 4.0168 82.3696 4.0168Z" fill="#E1B449"/>
<path fill-rule="evenodd" clip-rule="evenodd" d="M82.3701 11.1469C82.7664 11.1467 83.1538 11.2641 83.4834 11.4842C83.813 11.7043 84.0699 12.0171 84.2216 12.3832C84.3733 12.7493 84.4131 13.1522 84.3359 13.5409C84.2586 13.9296 84.0679 14.2866 83.7877 14.5669C83.5075 14.8472 83.1505 15.0381 82.7618 15.1154C82.3732 15.1928 81.9703 15.1531 81.6042 15.0015C81.238 14.8499 80.9251 14.5931 80.7049 14.2636C80.4847 13.9341 80.3672 13.5467 80.3672 13.1504C80.3672 12.6191 80.5782 12.1096 80.9538 11.7339C81.3294 11.3582 81.8388 11.147 82.3701 11.1469Z" fill="#E1B449"/>
<path fill-rule="evenodd" clip-rule="evenodd" d="M82.3701 21.8339C82.7664 21.8337 83.1538 21.9511 83.4834 22.1712C83.813 22.3913 84.0699 22.7042 84.2216 23.0703C84.3733 23.4363 84.4131 23.8392 84.3359 24.2279C84.2586 24.6166 84.0679 24.9737 83.7877 25.2539C83.5075 25.5342 83.1505 25.7251 82.7618 25.8024C82.3732 25.8798 81.9703 25.8401 81.6042 25.6885C81.238 25.5369 80.9251 25.2801 80.7049 24.9506C80.4847 24.6211 80.3672 24.2337 80.3672 23.8374C80.3672 23.3061 80.5782 22.7966 80.9538 22.4209C81.3294 22.0452 81.8388 21.834 82.3701 21.8339Z" fill="#E1B449"/>
</g>
<defs>
<clipPath id="clip0_8923_1587">
<rect width="84.4264" height="25.832" fill="white"/>
</clipPath>
</defs>
</svg>
