<svg width="100" height="101" viewBox="0 0 100 101" fill="none" xmlns="http://www.w3.org/2000/svg">
<path d="M36.5414 13.5565C51.9953 16.7046 82.6409 30.3085 81.5925 59.5386C80.544 88.7687 57.6838 73.2145 46.3847 61.7837C39.8463 53.2678 26.308 39.9527 24.4615 54.8198C23.4998 62.5632 28.4236 77.7498 22.0702 77.4985C21.0861 77.4986 17.9413 76.176 13.2345 70.8849C8.52777 65.5938 5.95125 62.3812 5.25134 61.4364" stroke="#B5B5B5" stroke-width="1.93914" stroke-linecap="round"/>
<path d="M38.5375 4.73736C53.9914 7.88554 84.637 21.4894 83.5886 50.7195C82.5401 79.9496 59.6799 64.3954 48.3808 52.9646C41.8424 44.4487 28.3041 31.1336 26.4576 46.0007C25.4959 53.7441 30.4197 68.9307 24.0662 68.6794C23.0822 68.6795 19.9374 67.3569 15.2306 62.0658C10.5239 56.7747 7.94735 53.5621 7.24744 52.6173" stroke="#DFB161" stroke-width="1.93914" stroke-linecap="round"/>
</svg>
